<svg xmlns="http://www.w3.org/2000/svg" width="8.61in" height="4.91in" viewBox="0 0 620.07 353.23">
  <defs>
    <style>
      .cls-1 {
        fill: #fff;
      }

      .cls-2 {
        fill: #24272a;
      }

      .cls-3 {
        fill: #8cba11;
      }
    </style>
  </defs>
  <title>owc-logo-mark-001</title>
  <g id="Layer_2_copy_2" data-name="Layer 2 copy 2">
    <path class="cls-1" d="M0,42.7V310.53a42.75,42.75,0,0,0,42.7,42.7H548a42.75,42.75,0,0,0,42.7-42.7V42.7A42.75,42.75,0,0,0,548,0H42.7A42.75,42.75,0,0,0,0,42.7Z"/>
    <path class="cls-2" d="M599.92,30h2.14v9.07h2.29V30h2.13V28h-6.56Zm18.14-2h-2.32l-2.45,6.73L610.74,28h-2.3l-1.63,11.06H609L610,32.33l2.62,6.78h1.26l2.65-7,1.17,7h2.35Z"/>
  </g>
  <g id="Layer_3" data-name="Layer 3">
    <g>
      <path class="cls-3" d="M447,189.72c7.93,16.52,16.61,22.84,16.61,22.84l2-6.32c-7.27-7.05-15.2-20.49-15.2-20.49l-17.85-8.37,1.45,4.26A54.68,54.68,0,0,0,447,189.72Z"/>
      <path class="cls-2" d="M545.77,28.46h-42.6A713.7,713.7,0,0,0,430,45C325.81,74,179.26,135.8,151.76,147.53l0,.07c2.37-.49,4-.92,4-.92A35.84,35.84,0,0,0,172,149.89c34.71-1.81,42.47,5.05,42.47,5.05s8.68-1.8,17.53-2.65,16.34,1.29,33.5-.79c11.13-9.21,37.11-16.3,58.85-8.18a46,46,0,0,1,15.9,9.94c1-.19,1.59-.34,1.59-.34s3.08-7.27,7.27-7.05a37.24,37.24,0,0,1,9,2s6.17,1.32,7.93,2.42,2.42,2.2,2.42,3.08a12.58,12.58,0,0,1-1.32,3.3s5.95,2.2,7.71,3.08c3.08-.22,5.95-.22,8.59,1.1a8.55,8.55,0,0,1,7.93.66c.88-.22,3.08-.88,3.08-.88l-3.08-2.86s-2.15-2.55.74-7.46a75.42,75.42,0,0,0-12-10.05C357,132.59,329,122.38,317.58,118.81s-29.69-.66-40.76,2.92a333.47,333.47,0,0,1-33.27,10.16s7.59-2.54,16.55-6.33,12.43-9.16,30.77-15.6,30.07-3.75,36.2-1.41,16.23,4.16,19.49,3.62c2.7,2.65,11.29,4.67,18.87,7.42a15,15,0,0,1,9.21,10.1s7.65,7.66,10.4,9.59c2.27,1.59,7.73,5.08,10.06,7.61a3.46,3.46,0,0,1,4.45.09,14.72,14.72,0,0,1,6.83-8.59c-.88-9.25-.88-12.12-.88-12.12l2.64-5.95s1.1-.88,2,1.1,3.75,7.27,3.75,7.27,13.5-7.92,31.83-2.22a11.19,11.19,0,0,1,1.52-2.62c.88-.88,1.76.66,1.76.66l.82,3.42c16.7,6.66,26.59,19.63,29.28,28.53l10.58-4.85a2.35,2.35,0,0,1,1.32,1.76c.22,1.32,5.51,33.93-17.85,59.27-1.1,1.1-1.76.88-2.86-.66s-2.86-3.75-2.86-3.75-2.2,6.61-4.19,7.93c-5.07,3.75-15,11.68-15,11.68s-.22,7.05-1.54,7.71-6.39-2.64-13.22-7.05-14.76-8.81-14.76-8.81-.22,2.64-2,3.75,6.61,1.39,12.34,10,8.32,16.63,5.06,29l-2.28,1.93.08.28s6.95,26.64,11,51.94a96.72,96.72,0,0,0,11.12-11.19l3-3.93s1.8-6.82,3-8c-3.37-2.45-5-7.15-5.42-9.52a8.86,8.86,0,0,1-3.33-1.17s.25-3.66-.33-4.74-2.18-5.23,2.28-8.85,7.35-4.62,8.1-3.91c3.45-.66,5.44-1.27,5.44-1.27a6.36,6.36,0,0,1,3.52-4.32c1.36-3.15,2.27-3.36,2.27-3.36s1-4.23,3.12-5.4a3,3,0,0,1,1.19-2.78s2.89-6.85,3.79-7.43c1.57-2.43,4.15-7.44,4.15-7.44s4.61-10.38,7.55-9.74,3.53,1.72,2.53,4.86a36.37,36.37,0,0,1-3.59,7.79c-.5,1.66-2.14,7.38-3.21,8.33-.5,1.48-1,4.42-1.48,5.35,1.44-.59,4.19-6.16,4.36-6.72l.35-.38s1-4.05,2-5.18c1.31-4.79,4.34-14.38,6.92-14.61s4.48,1.71,4.22,3.16-1.56,6.34-1.88,7.58c-.37,1.45-.51,3.85-1.17,5.44a97.1,97.1,0,0,1-3.15,10.34,45.35,45.35,0,0,0-2,6.09,10.22,10.22,0,0,1,3.39,3.18c1.87,1.22,3.92,2.62,3.51,7,1.32,1.42,2.24,1.39,2.24,1.39s3.7,1.53,4.14,3.89.73,5.64-.17,6.22c-.12,2-.09,2.93-1.5,4.43s-8.47,9.59-9.5,11.82-6.3,8.79-8.82,10c-2.05,4.45-9.26,19.3-9.26,19.3l-.46,1.94h65.82A13.8,13.8,0,0,0,559.54,311V42.22A13.8,13.8,0,0,0,545.77,28.46Z"/>
      <path class="cls-2" d="M405.58,274.67c-4.45,3-17.1,9.33-26.5,13.9-1.73.73-6.13,2.64-10.89,5.23l-.14.07h0c-5.84,3.19-12.17,7.39-14.74,11.67-2.3,3.83-5.62,12.56-7.86,19.21h50.49c-3.87-8.67-10.7-24.24-13.8-31.33C390.63,288.25,402.42,280.35,405.58,274.67Z"/>
      <path class="cls-3" d="M212.35,315.31c-1.1-3.75.22-5.95.22-5.95s-2.86-10.36-4.19-17.19,2.42-7.93,6.17-10.58,10.14-6.83,12.56-6.17,7.71,3.75,7.05,7.27c-.48,2.56.43,6.84,1,9,.4-.62.92-1.32,1.6-2.18,2.42-3.08,6.61-7.05,10.14-7.27,4.85-8.81,15.42-25.78,16.75-27.1a70,70,0,0,1,0-13.71c-25.33,11.89-53.76,23.47-75.08,33.22-45.46,20.78-92.38,32-95.12,32.65-4.37,1.1-14.23,4.23-16,1.61-.86-1.3-3-4.47-4.63-6.69s-2.77-4.65,2.81-6.18c7.31-2,57-14.06,127.26-46.2C220.16,242,244.5,231,265.81,219.92a37,37,0,0,1,1.44-11.8c-11.85-.11-22.68-1.17-26.72-3.41-5.51-4-41.1-10.19-41.1-10.19a18.26,18.26,0,0,1-4.13,2.83c-3.36,1.93-5.45,1.87-8.24,1.71s-11.09-.16-15.44,0-6.41-1.13-7.56-3.85c-6.07-.47-14.94-2.57-21.36-7.88s-13.16-5.65-21.93-8.51c-5.79,1.2-15.27-1.76-18.2-4.11a17,17,0,0,0-2.45-1.61L70.59,187s-7,4.61-8.57,4.37-1.22-3-2.62-7.19,1.33-8,1.33-8l29.54-18.64a1.07,1.07,0,0,1,.16-.46,8,8,0,0,1,2.49-5c.24-3.44.23-5.74,2.35-7.81-.16-1.28.3-2.25,2.69-2.73a16.45,16.45,0,0,0,2-1.94s-.67-1.94,1.16-2.21c1.53-.75,3.94-1.89,3.94-1.89s-.6-1.19.93-1.72,3.18-1.63,4.35-1.32c1.3-.26,2.5-.83,3.69-1s3.63.58,5.15.05a11.35,11.35,0,0,1,1.13-.43c-.48-2.08-.55-4,.37-5.14,3.72,1.2,11.64,5.18,17.71,8.35,38.9-15.09,185.31-71.45,254.72-92.11,14.69-4.37,38.26-9.89,57.14-13.79h-409A13.8,13.8,0,0,0,27.54,42.22V311a13.8,13.8,0,0,0,13.76,13.76H212l3.73-4.06A10.73,10.73,0,0,1,212.35,315.31Z"/>
    </g>
  </g>
</svg>
